<svg width="420" height="129" viewBox="0 0 420 129" fill="none" xmlns="http://www.w3.org/2000/svg">
<circle cx="51" cy="65" r="8" fill="#B55400"/>
<circle cx="27" cy="50" r="6" fill="#B55400"/>
<circle cx="51" cy="95" r="6" fill="#B55400"/>
<circle cx="74" cy="78" r="6" fill="#B55400"/>
<circle cx="27" cy="78" r="6" fill="#B55400"/>
<circle cx="74" cy="50" r="6" fill="#B55400"/>
<circle cx="51" cy="34" r="6" fill="#B55400"/>
<circle cx="5" cy="63" r="5" fill="#B55400"/>
<circle cx="94" cy="65" r="5" fill="#B55400"/>
<circle cx="28" cy="106" r="5" fill="#B55400"/>
<circle cx="74" cy="106" r="5" fill="#B55400"/>
<circle cx="30" cy="23" r="5" fill="#B55400"/>
<circle cx="73" cy="23" r="5" fill="#B55400"/>
<circle cx="9.5" cy="36.5" r="3.5" fill="#B55400"/>
<circle cx="50.5" cy="9.5" r="3.5" fill="#B55400"/>
<circle cx="92.5" cy="90.5" r="3.5" fill="#B55400"/>
<circle cx="50.5" cy="117.5" r="3.5" fill="#B55400"/>
<circle cx="9.5" cy="89.5" r="3.5" fill="#B55400"/>
<circle cx="92.5" cy="36.5" r="3.5" fill="#B55400"/>
<rect x="129" width="6" height="129" fill="white"/>
<path d="M161.52 107V19.96H193.52C199.323 19.96 204.272 22.008 208.368 26.104C212.464 30.2 214.512 35.1493 214.512 40.952C214.512 44.9627 213.488 48.632 211.44 51.96C209.392 55.2027 206.661 57.72 203.248 59.512C207.856 61.304 211.525 64.0773 214.256 67.832C216.987 71.5867 218.352 75.9813 218.352 81.016C218.352 88.2693 215.835 94.4133 210.8 99.448C205.765 104.483 199.621 107 192.368 107H161.52ZM192.112 64.248H171.76V97.784H192.112C196.635 97.784 200.517 96.12 203.76 92.792C207.003 89.464 208.624 85.5387 208.624 81.016C208.624 76.408 207.003 72.4827 203.76 69.24C200.517 65.912 196.635 64.248 192.112 64.248ZM191.6 29.176H171.76V55.032H191.6C195.269 55.032 198.384 53.7947 200.944 51.32C203.504 48.8453 204.784 45.7733 204.784 42.104C204.784 38.4347 203.504 35.3627 200.944 32.888C198.384 30.4133 195.269 29.176 191.6 29.176ZM264.106 19.96L293.418 107H282.794L274.346 81.4H241.322L232.874 107H222.25L251.562 19.96H264.106ZM257.834 31.224L244.266 72.184H271.274L257.834 31.224ZM315.263 99.832C323.882 99.832 328.191 94.0293 328.191 82.424V19.96H338.431V82.424C338.431 90.872 336.383 97.4427 332.287 102.136C328.276 106.744 323.071 109.048 316.671 109.048C307.37 109.048 299.604 105.933 293.375 99.704L299.007 92.536C304.127 97.4 309.546 99.832 315.263 99.832ZM389.856 19.96L419.168 107H408.544L400.096 81.4H367.072L358.624 107H348L377.312 19.96H389.856ZM383.584 31.224L370.016 72.184H397.024L383.584 31.224Z" fill="white"/>
</svg>
